<?xml version="1.0" standalone="no"?><!DOCTYPE svg PUBLIC "-//W3C//DTD SVG 1.1//EN" "http://www.w3.org/Graphics/SVG/1.1/DTD/svg11.dtd"><svg t="1718776239567" class="icon" viewBox="0 0 1024 1024" version="1.1" xmlns="http://www.w3.org/2000/svg" p-id="1541" xmlns:xlink="http://www.w3.org/1999/xlink" width="200" height="200"><path d="M875.52 110.933333H150.186667c-15.36 0-25.6-11.946667-25.6-25.6S136.533333 59.733333 150.186667 59.733333h725.333333c13.653333 0 25.6 11.946667 25.6 25.6s-11.946667 25.6-25.6 25.6zM875.52 964.266667H150.186667c-13.653333 0-25.6-11.946667-25.6-25.6s11.946667-25.6 25.6-25.6h725.333333c13.653333 0 25.6 11.946667 25.6 25.6s-11.946667 25.6-25.6 25.6z" fill="#1677ff" p-id="1542"></path><path d="M790.186667 964.266667H235.52c-6.826667 0-15.36-3.413333-20.48-8.533334s-6.826667-13.653333-5.12-20.48c59.733333-300.373333 158.72-447.146667 302.08-447.146666 143.36 0 242.346667 146.773333 302.08 447.146666 1.706667 6.826667 0 15.36-5.12 20.48s-11.946667 8.533333-18.773333 8.533334z m-523.946667-51.2h491.52c-54.613333-249.173333-136.533333-375.466667-245.76-375.466667s-191.146667 126.293333-245.76 375.466667z" fill="#1677ff" p-id="1543"></path><path d="M512 537.6c-143.36 0-242.346667-146.773333-302.08-447.146667-1.706667-6.826667 0-15.36 5.12-20.48s11.946667-8.533333 20.48-8.533333h554.666667c6.826667 0 15.36 3.413333 20.48 8.533333s6.826667 13.653333 5.12 20.48C754.346667 390.826667 655.36 537.6 512 537.6z m-245.76-426.666667c54.613333 249.173333 136.533333 375.466667 245.76 375.466667s191.146667-126.293333 245.76-375.466667H266.24z" fill="#1677ff" p-id="1544"></path><path d="M576.853333 346.453333h-128c-13.653333 0-25.6-11.946667-25.6-25.6s11.946667-25.6 25.6-25.6h128c13.653333 0 25.6 11.946667 25.6 25.6s-11.946667 25.6-25.6 25.6zM619.52 836.266667H406.186667c-13.653333 0-25.6-11.946667-25.6-25.6S392.533333 785.066667 406.186667 785.066667h213.333333c13.653333 0 25.6 11.946667 25.6 25.6s-11.946667 25.6-25.6 25.6z" fill="#1677ff" p-id="1545"></path></svg>