<?xml version="1.0" standalone="no"?><!DOCTYPE svg PUBLIC "-//W3C//DTD SVG 1.1//EN" "http://www.w3.org/Graphics/SVG/1.1/DTD/svg11.dtd"><svg t="1718776235085" class="icon" viewBox="0 0 1024 1024" version="1.1" xmlns="http://www.w3.org/2000/svg" p-id="1391" xmlns:xlink="http://www.w3.org/1999/xlink" width="200" height="200"><path d="M521 286.1h-18c-70.8 0-128.4 57.6-128.4 128.4v22c0 20 16.3 36.3 36.3 36.3 20 0 36.3-16.3 36.3-36.3v-22c0-30.8 25-55.8 55.8-55.8h18c30.8 0 55.8 25 55.8 55.8 0 17.4-8.3 34-22.1 44.5l-40.3 30.5c-31.9 24.1-50.9 62.4-50.9 102.4v12c0 20 16.3 36.3 36.3 36.3 20 0 36.3-16.3 36.3-36.3v-12c0-17.4 8.3-34 22.1-44.5l40.3-30.5c31.9-24.1 50.9-62.4 50.9-102.4 0-70.8-57.6-128.4-128.4-128.4zM502.1 650.3c-24.1 0-43.7 19.6-43.7 43.7s19.6 43.7 43.7 43.7 43.7-19.6 43.7-43.7c-0.1-24.1-19.6-43.7-43.7-43.7z" fill="#1677ff" p-id="1392"></path><path d="M512 125.3c-231.4 0-412.7 167.8-412.7 382.1 0 108.9 50.2 212.6 137.9 285.1 1.8 5.5 3.5 17.4 4.6 24.9 4.1 28.4 8.8 60.5 36.6 75.2 8.2 4.3 16.6 6.1 25 6.1 19.3 0 38.7-9.2 56.5-17.6 7.2-3.4 18.6-8.8 24.4-10.3 41.1 12.4 84.1 18.7 127.8 18.7 250.7 0 412.7-150 412.7-382.1C924.7 282.5 755 125.3 512 125.3z m0 691.6c-37.8 0-74.8-5.6-110-16.5-24.7-7.7-49.3 3.8-73.1 15.1-3.7 1.7-8.4 4-13 6-0.9-5-1.7-10.4-2.3-14.5-3.7-25.6-7.6-52-27.6-68.2-72.6-58.7-114.2-143-114.2-231.3C171.8 334 321.2 198 512 198c203.5 0 340.2 124.4 340.2 309.5 0 149.5-89.4 309.4-340.2 309.4z" fill="#1677ff" p-id="1393"></path></svg>