<?xml version="1.0" standalone="no"?><!DOCTYPE svg PUBLIC "-//W3C//DTD SVG 1.1//EN" "http://www.w3.org/Graphics/SVG/1.1/DTD/svg11.dtd"><svg t="1718776218723" class="icon" viewBox="0 0 1024 1024" version="1.1" xmlns="http://www.w3.org/2000/svg" p-id="1082" xmlns:xlink="http://www.w3.org/1999/xlink" width="200" height="200"><path d="M470.979236 673.179936l-166.685323-166.685323c-7.845689-7.844665-23.533996-7.843642-31.377638 0-7.842619 7.842619-7.843642 23.530926 0.001023 31.376615l166.685323 166.685323c7.846712 7.845689 23.532973 7.842619 31.375591 0.001023C478.822878 696.712909 478.824925 681.026648 470.979236 673.179936z" fill="#1677ff" p-id="1083"></path><path d="M471.513402 703.533244l333.578378-333.577355c7.844665-7.845689 7.843642-23.533996 0-31.377638-7.842619-7.842619-23.530926-7.843642-31.376615 0.001023l-333.578378 333.577355c-7.845689 7.846712-7.842619 23.532973-0.001023 31.375591C447.980429 711.376886 463.66669 711.378933 471.513402 703.533244z" fill="#1677ff" p-id="1084"></path><path d="M22.987039 607.571682 22.987039 607.571682 22.987039 607.571682 22.987039 607.571682zM904.588865 1020.909615c64.240093 0 116.321262-52.022841 116.321262-116.321262l0-726.95877c0-64.296375-52.081169-116.380614-116.321262-116.380614l-145.401578 0 0-14.538111c0-24.075325 9.535167-43.620473-14.540158-43.620473-24.079418 0-43.624567 19.545148-43.624567 43.620473l0 14.538111-378.046149 0 0-14.538111c0-24.075325-19.512403-43.620473-43.62252-43.620473-24.077372 0-14.540158 19.545148-14.540158 43.620473l0 14.538111-145.403624 0c-64.238047 0-116.321262 52.084239-116.321262 116.380614l0 726.95877c0 64.298422 52.082192 116.321262 116.321262 116.321262L904.588865 1020.909615 904.588865 1020.909615zM976.370725 166.476569l0 749.208517c-6.558369 39.881312-31.631418 59.937091-64.374146 59.937091l-799.993157 0c-19.840884-3.324722-62.327534-26.822902-62.327534-59.937091l0-749.208517c0-33.084513 29.617551-59.932997 62.327534-59.932997l148.147108 0 0 44.953841c0 24.810059-9.718339 44.948725 14.814404 44.948725 24.564465 0 44.446281-20.138666 44.446281-44.948725l0-44.953841 385.178593 0 0 44.953841c0 24.810059-9.715269 44.948725 14.815427 44.948725 24.533766 0 44.447305-20.138666 44.447305-44.948725l0-44.953841 148.145062 0C937.938414 105.576547 976.370725 133.392056 976.370725 166.476569L976.370725 166.476569z" fill="#1677ff" p-id="1085"></path></svg>