<svg width="56" height="56" viewBox="0 0 56 56" fill="none" xmlns="http://www.w3.org/2000/svg">
<g clip-path="url(#clip0_17_3582)">
<circle cx="28" cy="28" r="28" fill="#1681FF"/>
<path d="M31.6667 28.4419C35.0417 28.4419 39 31.1329 39 35.9767V39.7442C39 40.4378 38.4528 41 37.7778 41H18.2222C17.5472 41 17 40.4378 17 39.7442V35.9767C17 31.1369 20.9583 28.4419 24.3333 28.4419H31.6667ZM28 14C31.3751 14 34.1111 16.8112 34.1111 20.2791C34.1111 23.7469 31.3751 26.5581 28 26.5581C24.6249 26.5581 21.8889 23.7469 21.8889 20.2791C21.8889 16.8112 24.6249 14 28 14Z" fill="white"/>
</g>
<defs>
<clipPath id="clip0_17_3582">
<rect width="56" height="56" fill="white"/>
</clipPath>
</defs>
</svg>
