<?xml version="1.0" standalone="no"?><!DOCTYPE svg PUBLIC "-//W3C//DTD SVG 1.1//EN" "http://www.w3.org/Graphics/SVG/1.1/DTD/svg11.dtd"><svg t="1717400541127" class="icon" viewBox="0 0 1024 1024" version="1.1" xmlns="http://www.w3.org/2000/svg" p-id="8758" xmlns:xlink="http://www.w3.org/1999/xlink" width="200" height="200"><path d="M25.6 774.112c0 66.6688 191.9808 120.7296 428.7936 120.7296 236.8064 0 428.8-54.0608 428.8-120.7296 0-66.6752-191.9808-120.7296-428.8-120.7296C217.5808 653.376 25.6 707.4368 25.6 774.112z" fill="#F0F1F4" p-id="8759"></path><path d="M716.672 692.512l-184.8448 162.368-6.656-313.9072 196.4928-116.5632-4.992 268.1024z" fill="#F5F9FF" p-id="8760"></path><path d="M525.9968 851.5584l-344.704-100.7552V634.24l290.5792 85.76c19.1552-134.048 34.9632-186.496 46.624-158.1888 11.648 28.3136 14.1632 124.8832 7.5008 289.7472z" fill="#E1E5EC" p-id="8761"></path><path d="M521.0048 535.9872l-92.416-19.9872-5.824-65.7792V338.6496l289.7472 80.7616h9.984L521.0048 535.9872z" fill="#D4DAE2" p-id="8762"></path><path d="M428.5888 520.1792L187.9616 453.568l240.6272-116.5632z" fill="#F0F1F4" p-id="8763"></path><path d="M794.9312 577.6192l-70.784-144.0448v124.9024z" fill="#E1E5EC" p-id="8764"></path><path d="M427.7504 524.3328a3.936 3.936 0 0 1-4.16-4.1664V345.3248a4.1664 4.1664 0 0 1 8.3328 0v174.848a3.9488 3.9488 0 0 1-4.1664 4.16z" fill="#ACB5C3" p-id="8765"></path><path d="M521.0048 545.9712h-0.832L182.1376 459.392c-1.664-0.832-3.328-1.664-3.328-3.3344a4.5824 4.5824 0 0 1 2.496-4.1664l245.6128-117.4016a1.568 1.568 0 0 1 2.496 0l293.92 81.6c1.4848 0.6528 2.6752 1.8432 3.328 3.328a6.368 6.368 0 0 1-1.664 4.1728L523.5136 545.152c-0.832 0-1.6832 0.8192-2.496 0.8192zM195.456 453.568l324.7232 83.264L711.68 421.1072l-283.0912-79.104L195.4496 453.568z" fill="#ACB5C3" p-id="8766"></path><path d="M531.8272 860.704h-1.664c-1.664-0.832-2.496-1.664-2.496-3.328l-10.8288-315.5584c0-1.664 0.832-3.328 1.664-3.328L720 416.9152a3.7824 3.7824 0 0 1 4.16 0 4.4672 4.4672 0 0 1 2.5088 3.3344v273.9264a6.3168 6.3168 0 0 1-1.664 3.3344l-190.6752 163.1872h-2.5024zM525.1584 543.488l9.9904 303.904 182.3488-155.6928v-264.768L525.1648 543.488z" fill="#ACB5C3" p-id="8767"></path><path d="M531.8272 860.704h-0.832l-348.864-101.568c-1.664-0.832-3.3344-2.5024-3.3344-4.1728V633.408a4.1664 4.1664 0 0 1 8.3328 0v119.0592l340.5312 99.904v-0.832a4.1664 4.1664 0 0 1 8.3328 0v5.824a4.3328 4.3328 0 0 1-1.664 3.328h-2.496l-0.0064 0.0128z" fill="#ACB5C3" p-id="8768"></path><path d="M466.048 719.1552L118.016 612.5824 182.9696 455.232l338.048 86.592z" fill="#FFFFFF" p-id="8769"></path><path d="M466.048 723.328h-0.832L116.352 616.7424c-0.832 0-1.664-0.832-2.496-2.496a2.5344 2.5344 0 0 1 0-3.3344l64.9408-157.3632c0.832-1.664 2.496-3.328 4.992-2.496l338.048 86.592c0.832 0 1.664 0.832 2.496 1.664 0.8384 0.96 0.8384 2.3808 0 3.3344l-54.9504 178.1888c0 1.6512-1.664 2.4832-3.328 2.4832zM123.0272 610.0864L463.552 714.176l52.4544-169.8496-330.5472-84.0832-62.4384 149.856z m670.2336-24.1536h-0.832l-70.7648-19.9744c-1.664-0.832-3.3344-2.5024-3.3344-4.1664V419.424c0-1.664 1.664-3.3344 3.328-4.1664 1.6768-0.832 4.1728 0.832 5.0048 2.496l70.7712 147.3792v16.6528a4.3328 4.3328 0 0 1-1.664 3.328 3.0912 3.0912 0 0 1-2.496 0.832l-0.0128-0.0064z m-66.6048-27.4624l62.4448 18.3232v-8.32l-62.4448-129.888v119.8848z m13.3248-203.1616c-31.648 0-60.7744-11.6544-65.7792-14.1568l1.664-4.1664c6.6688 3.328 66.6112 27.4752 110.7328 1.664-11.6544-6.6688-20.8128-14.9888-24.9792-27.4816v-0.832c-4.1664-18.3232 1.664-29.1456 6.6688-35.7952 7.5008-9.152 20.8192-14.1568 34.9632-13.3248 10.816 0 19.1552 3.3344 23.3088 9.152 3.3344 4.1728 4.1664 9.1584 3.3344 15.8272-2.496 16.6528-17.4912 39.1296-35.7952 51.6224 13.3184 5.8304 29.1392 8.32 40.7936 8.32 40.7936-1.664 79.0976-40.7936 91.584-94.0864l4.1664 0.832c-13.3184 55.7888-53.2864 95.7568-95.7504 97.4208-12.4864 0.832-29.9776-2.496-44.9664-9.984-14.976 11.6608-33.2928 14.9888-49.9456 14.9888z m25.8112-44.1344c4.16 11.648 13.3184 19.9744 24.9728 25.8112l0.832-0.832c17.4912-11.6608 32.4864-33.312 34.9696-49.9584 0.832-5.824 0-9.984-2.496-13.3184-3.3408-4.1664-11.6608-7.488-19.9936-7.488-9.984 0-23.3088 2.496-31.648 12.4864-4.992 4.9984-9.984 14.9888-5.8304 31.6416l-0.8064 1.6576z" fill="#ACB5C3" p-id="8770"></path><path d="M963.9424 138.8352c-5.8304-8.32-46.6176 0.832-64.9408 28.3072-4.9984 8.32-10.816 34.1312-6.656 28.3136 10.8288-15.8208 30.8032-6.6688 45.792-19.1552 12.48-10.8224 30.8096-30.7968 25.8048-37.472z" fill="#F0F1F4" p-id="8771"></path><path d="M892.352 197.952h-1.664c-4.1728-2.496 4.16-26.6432 6.6624-31.6416 14.1504-21.6448 42.4704-31.6416 56.6208-32.4672 5.824 0 9.152 1.664 10.816 4.1728 7.5072 10.816-24.9728 39.9616-25.8048 39.9616-7.5008 6.6688-15.8208 7.5008-24.1472 8.32-8.32 1.664-16.6528 2.5024-21.6384 9.9904 0.8192 0.832-0.0128 1.664-0.8512 1.664z m62.432-60.7872c-14.1504 0-39.9616 9.9904-53.2864 29.9776-3.328 5.0048-5.824 16.6592-7.488 22.4768 6.6688-6.6688 14.1568-7.488 21.6448-8.32 7.488-0.832 14.9888-2.496 21.6448-7.488 14.1504-12.4864 28.3072-29.9776 24.9728-34.144-0.832-1.664-3.3152-2.496-7.488-2.496z" fill="#94A0B2" p-id="8772"></path><path d="M913.152 177.1328l-3.328-2.496c14.9888-19.1488 32.48-34.1376 69.1072-44.1344 3.3344-0.832 4.9984-1.664 5.824-1.664 1.664-0.832 1.664-0.832 6.6624-0.832l0.832 4.16c-4.16 0.832-4.16 0.832-5.824 0.832-0.832 0-2.5024 0.832-5.824 1.664-35.8016 9.1712-53.2864 23.3216-67.4432 42.464v0.0064z" fill="#94A0B2" p-id="8773"></path><path d="M150.4832 778.2784c-0.832 8.32-35.7952 18.3232-60.7744 6.6688-8.32-3.3344-22.4768-19.1552-17.4912-16.6592 14.9888 5.824 25.8112-7.5008 42.464-5.8304 13.3248 2.496 35.8016 9.1648 35.8016 15.8208z" fill="#F0F1F4" p-id="8774"></path><path d="M115.52 792.4352a72.0576 72.0576 0 0 1-26.6432-5.0048c-5.824-2.496-21.6448-14.9888-19.1424-19.1424 0 0 0.832-2.496 4.16-0.832 7.5072 3.328 13.3248 0.832 20.8256-1.664 6.6688-2.496 13.3248-4.9984 21.6448-3.3344 7.488 0.832 37.472 7.5008 37.472 17.4912 0 2.496-1.664 4.992-5.824 6.6496-7.5136 2.496-19.168 5.8368-32.4928 5.8368z m-39.968-20.8128c3.3344 4.1664 9.984 9.152 14.1568 11.6544 19.1424 8.32 44.1344 4.9984 54.1184-1.664 2.5024-1.664 3.3344-2.496 3.3344-3.328 0-4.1728-17.4848-10.8288-34.1312-13.3248-7.5008-0.832-13.3184 1.664-19.1552 3.328-4.9984 2.5088-10.816 5.0048-18.3232 3.3408z" fill="#94A0B2" p-id="8775"></path><path d="M162.9824 779.9424c-15.8208-4.16-29.1392-2.496-40.7936-1.664-11.648 0.8384-20.8064 1.664-30.8096-1.664l1.664-4.16c8.32 3.328 18.3232 2.496 29.1392 1.664 12.4928-0.832 25.8112-2.5024 41.632 1.664l-0.832 4.16z" fill="#94A0B2" p-id="8776"></path></svg>